/* XPM */
static char * boarder_vertical_xpm[] = {
"2 50 3 1",
" 	c #0CFCF9",
".	c #1002FC",
"+	c #1100FE",
"  ",
"..",
"++",
"++",
"++",
"++",
"++",
"++",
"++",
"++",
"++",
"++",
"++",
"++",
"++",
"++",
"++",
"++",
"++",
"++",
"++",
"++",
"++",
"++",
"++",
"++",
"++",
"++",
"++",
"++",
"++",
"++",
"++",
"++",
"++",
"++",
"++",
"++",
"++",
"++",
"++",
"++",
"++",
"++",
"++",
"++",
"++",
"++",
"..",
"  "};
